<svg width="512" height="512" xmlns="http://www.w3.org/2000/svg">
 <defs>
  <filter id="filter-1" filterUnits="objectBoundingBox" height="200%" width="200%" y="-50%" x="-50%">
   <feGaussianBlur stdDeviation="0.5"/>
   <feGaussianBlur stdDeviation="0.5"/>
  </filter>
 </defs>
 <g>
  <g stroke="null" fill-rule="evenodd" fill="none" id="Google-Button">
   <g stroke="null" id="9-PATCH"/>
   <g stroke="null" id="btn_google_light_normal">
    <g stroke="null" filter="url(#filter-1)" id="button"/>
    <g stroke="null" id="logo_googleg_48dp">
     <path stroke="null" fill="#4285F4" id="Shape" d="m505.13599,261.80354c0,-18.10686 -1.62488,-35.51691 -4.64284,-52.23071l-240.49317,0l0,98.77391l137.42482,0c-5.91959,31.91875 -23.91012,58.96259 -50.95396,77.06916l0,64.06986l82.5243,0c48.28441,-44.45416 76.14082,-109.91682 76.14082,-187.68225l0,0l0.00002,0.00002l0.00001,0.00001z"/>
     <path stroke="null" fill="#34A853" id="Shape" d="m260,511.34999c68.9445,0 126.74637,-22.86546 168.99517,-61.86421l-82.5243,-64.06986c-22.86546,15.321 -52.11466,24.3743 -86.47087,24.3743c-66.50705,0 -122.80009,-44.91834 -142.87996,-105.27371l-85.31016,0l0,66.15891c42.01671,83.45291 128.37154,140.67459 228.19012,140.67459l0,0l0,-0.00002z"/>
     <path stroke="null" fill="#FBBC05" id="Shape" d="m117.12004,304.5165c-5.107,-15.321 -8.00863,-31.68666 -8.00863,-48.5165c0,-16.82984 2.90163,-33.1955 8.00863,-48.5165l0,-66.15891l-85.31016,0c-17.294,34.47225 -27.15988,73.47129 -27.15988,114.67541c0,41.20412 9.86587,80.20316 27.15988,114.67541l85.31016,-66.15891l0,0z"/>
     <path stroke="null" fill="#EA4335" id="Shape" d="m260,102.20979c37.48991,0 71.14987,12.88355 97.61321,38.18617l73.2392,-73.23891c-44.22209,-41.20412 -102.02396,-66.50705 -170.85241,-66.50705c-99.81859,0 -186.17341,57.22166 -228.19012,140.67459l85.31016,66.15891c20.07987,-60.35537 76.37291,-105.27371 142.87996,-105.27371l0,0z"/>
     <path stroke="null" id="Shape" d="m4.64999,0.64999l510.69999,0l0,510.69999l-510.69999,0l0,-510.69999z"/>
    </g>
   </g>
  </g>
 </g>
</svg>